<?xml version="1.0" encoding="UTF-8"?>

<svg xmlns="http://www.w3.org/2000/svg"

     xmlns:xlink="http://www.w3.org/1999/xlink"

     xmlns:gadfly="http://www.gadflyjl.org/ns"
     version="1.2"

     width="200mm" height="120mm" viewBox="0 0 240 120"

     stroke="none"

     fill="#000000"

     stroke-width="0.3"

>
<g class="plotroot xscalable yscalable" id="fig-5f341cca0e9a44b6a908ae7af94ea170-element-1">
  <g font-size="3.88" font-family="'PT Sans','Helvetica Neue','Helvetica',sans-serif" fill="#564A55" stroke="none" id="fig-5f341cca0e9a44b6a908ae7af94ea170-element-2">
    <text x="130.43" y="113" text-anchor="middle">Date</text>
  </g>
  <g class="guide xlabels" font-size="2.82" font-family="'PT Sans Caption','Helvetica Neue','Helvetica',sans-serif" fill="#6C606B" id="fig-5f341cca0e9a44b6a908ae7af94ea170-element-3">
    <text x="27.84" y="104.74" text-anchor="middle">2008</text>
    <text x="59.34" y="104.74" text-anchor="middle">2009</text>
    <text x="90.75" y="104.74" text-anchor="middle">2010</text>
    <text x="122.17" y="104.74" text-anchor="middle">2011</text>
    <text x="153.58" y="104.74" text-anchor="middle">2012</text>
    <text x="185.08" y="104.74" text-anchor="middle">2013</text>
    <text x="216.5" y="104.74" text-anchor="middle">2014</text>
  </g>
  <g font-size="3.88" font-family="'PT Sans','Helvetica Neue','Helvetica',sans-serif" fill="#564A55" stroke="none" id="fig-5f341cca0e9a44b6a908ae7af94ea170-element-4">
    <text x="9.63" y="57.61" text-anchor="middle" dy="0.35em" transform="rotate(-90, 9.63, 57.61)">Hedonomoeter.org Units</text>
  </g>
  <g clip-path="url(#fig-5f341cca0e9a44b6a908ae7af94ea170-element-6)" id="fig-5f341cca0e9a44b6a908ae7af94ea170-element-5">
    <g pointer-events="visible" opacity="1" fill="none" stroke="none" class="guide background" id="fig-5f341cca0e9a44b6a908ae7af94ea170-element-7">
      <rect x="25.86" y="14.26" width="209.14" height="86.7"/>
    </g>
    <g class="guide ygridlines xfixed" stroke-dasharray="0.5,0.5" stroke-width="0.2" stroke="#D0D0E0" id="fig-5f341cca0e9a44b6a908ae7af94ea170-element-8">
      <path d="M25.86,98.96 L 235 98.96"/>
      <path d="M25.86,71.39 L 235 71.39"/>
      <path d="M25.86,43.83 L 235 43.83"/>
      <path d="M25.86,16.26 L 235 16.26"/>
    </g>
    <g class="guide xgridlines yfixed" stroke-dasharray="0.5,0.5" stroke-width="0.2" stroke="#D0D0E0" id="fig-5f341cca0e9a44b6a908ae7af94ea170-element-9">
      <path d="M27.84,14.26 L 27.84 100.96"/>
      <path d="M59.34,14.26 L 59.34 100.96"/>
      <path d="M90.75,14.26 L 90.75 100.96"/>
      <path d="M122.17,14.26 L 122.17 100.96"/>
      <path d="M153.58,14.26 L 153.58 100.96"/>
      <path d="M185.08,14.26 L 185.08 100.96"/>
      <path d="M216.5,14.26 L 216.5 100.96"/>
    </g>
    <g class="plotpanel" id="fig-5f341cca0e9a44b6a908ae7af94ea170-element-10">
      <g stroke-width="0.3" fill="none" class="geometry" stroke="#00BFFF" id="fig-5f341cca0e9a44b6a908ae7af94ea170-element-11">
        <path d="M49.61,50.21 L 49.7 50.64 49.78 45.78 49.87 39.27 49.96 35.98 50.04 38.38 50.13 44.63 50.21 50.01 50.3 50.44 50.39 45.58 50.47 39.06 50.56 35.77 50.65 38.17 50.73 44.42 50.82 49.8 50.9 50.23 50.99 45.37 51.08 38.85 51.16 35.56 51.25 37.96 51.33 44.21 51.42 49.59 51.51 50.02 51.59 45.16 51.68 38.64 51.76 35.35 51.85 37.74 51.94 43.99 52.02 49.37 52.11 49.8 52.19 44.94 52.28 38.42 52.37 35.13 52.45 37.52 52.54 43.77 52.62 49.15 52.71 49.58 52.8 44.71 52.88 38.19 52.97 34.9 53.06 37.3 53.14 43.55 53.23 48.92 53.31 49.35 53.4 44.49 53.49 37.97 53.57 34.68 53.66 37.07 53.74 43.32 53.83 48.69 53.92 49.12 54 44.25 54.09 37.73 54.17 34.44 54.26 36.83 54.35 43.08 54.43 48.45 54.52 48.88 54.6 44.01 54.69 37.49 54.78 34.2 54.86 36.59 54.95 42.84 55.03 48.21 55.12 48.64 55.21 43.77 55.29 37.25 55.38 33.96 55.46 36.35 55.55 42.6 55.64 47.97 55.72 48.4 55.81 43.53 55.9 37.01 55.98 33.71 56.07 36.1 56.15 42.35 56.24 47.72 56.33 48.15 56.41 43.28 56.5 36.76 56.58 33.47 56.67 35.86 56.76 42.1 56.84 47.47 56.93 47.9 57.01 43.03 57.1 36.51 57.19 33.22 57.27 35.61 57.36 41.85 57.44 47.22 57.53 47.65 57.62 42.78 57.7 36.26 57.79 32.97 57.87 35.36 57.96 41.6 58.05 46.98 58.13 47.4 58.22 42.54 58.31 36.01 58.39 32.72 58.48 35.11 58.56 41.36 58.65 46.73 58.74 47.16 58.82 42.29 58.91 35.77 58.99 32.48 59.08 34.87 59.17 41.12 59.25 46.49 59.34 46.92 59.42 42.05 59.51 35.53 59.6 32.24 59.68 34.63 59.77 40.88 59.85 46.25 59.94 46.68 60.03 41.82 60.11 35.3 60.2 32.01 60.28 34.4 60.37 40.65 60.46 46.03 60.54 46.46 60.63 41.59 60.72 35.07 60.8 31.78 60.89 34.18 60.97 40.43 61.06 45.81 61.15 46.24 61.23 41.37 61.32 34.86 61.4 31.57 61.49 33.97 61.58 40.22 61.66 45.6 61.75 46.03 61.83 41.17 61.92 34.65 62.01 31.37 62.09 33.76 62.18 40.02 62.26 45.4 62.35 45.83 62.44 40.97 62.52 34.46 62.61 31.18 62.69 33.58 62.78 39.83 62.87 45.21 62.95 45.65 63.04 40.79 63.12 34.28 63.21 31 63.3 33.4 63.38 39.66 63.47 45.05 63.56 45.48 63.64 40.63 63.73 34.12 63.81 30.84 63.9 33.25 63.99 39.51 64.07 44.89 64.16 45.33 64.24 40.48 64.33 33.98 64.42 30.7 64.5 33.11 64.59 39.37 64.67 44.76 64.76 45.2 64.85 40.35 64.93 33.85 65.02 30.57 65.1 32.98 65.19 39.25 65.28 44.64 65.36 45.09 65.45 40.24 65.53 33.74 65.62 30.47 65.71 32.88 65.79 39.15 65.88 44.54 65.97 44.99 66.05 40.15 66.14 33.65 66.22 30.38 66.31 32.8 66.4 39.07 66.48 44.47 66.57 44.92 66.65 40.08 66.74 33.59 66.83 30.32 66.91 32.74 67 39.01 67.08 44.41 67.17 44.87 67.26 40.03 67.34 33.54 67.43 30.28 67.51 32.7 67.6 38.98 67.69 44.38 67.77 44.84 67.86 40 67.94 33.51 68.03 30.26 68.12 32.68 68.2 38.96 68.29 44.37 68.37 44.83 68.46 40 68.55 33.51 68.63 30.26 68.72 32.68 68.81 38.97 68.89 44.38 68.98 44.84 69.06 40.01 69.15 33.53 69.24 30.28 69.32 32.71 69.41 39 69.49 44.41 69.58 44.88 69.67 40.05 69.75 33.57 69.84 30.32 69.92 32.76 70.01 39.05 70.1 44.46 70.18 44.93 70.27 40.11 70.35 33.63 70.44 30.39 70.53 32.82 70.61 39.12 70.7 44.54 70.78 45.01 70.87 40.19 71.39 33.72 71.47 30.47 71.56 32.91 71.65 39.21 71.73 44.63 71.82 45.11 71.9 40.29 71.99 33.82 72.08 30.58 72.16 33.02 72.25 39.32 72.33 44.74 72.42 45.22 72.51 40.41 72.59 33.94 72.68 30.7 72.76 33.14 72.85 39.44 72.94 44.87 73.02 45.35 73.11 40.54 73.19 34.08 73.28 30.84 73.37 33.29 73.45 39.59 73.54 45.02 73.63 45.5 73.71 40.69 73.8 34.23 73.88 30.99 73.97 33.44 74.06 39.75 74.14 45.18 74.23 45.67 74.31 40.86 74.4 34.4 74.49 31.16 74.57 33.62 74.66 39.92 74.74 45.36 74.83 45.84 74.92 41.04 75 34.58 75.09 31.35 75.17 33.8 75.26 40.11 75.35 45.54 75.43 46.03 75.52 41.23 75.6 34.77 75.69 31.54 75.78 33.99 75.86 40.3 75.95 45.74 76.03 46.23 76.12 41.43 76.21 34.97 76.29 31.74 76.38 34.2 76.47 40.51 76.55 45.95 76.64 46.44 76.72 41.64 76.81 35.18 76.9 31.96 76.98 34.41 77.07 40.72 77.15 46.16 77.24 46.66 77.33 41.85 77.41 35.4 77.5 32.17 77.58 34.63 77.67 40.94 78.01 46.38 78.1 46.87 78.19 42.07 78.27 35.62 78.36 32.39 78.44 34.85 78.53 41.16 78.62 46.6 78.7 47.1 78.79 42.3 78.88 35.84 78.96 32.62 79.05 35.07 79.13 41.39 79.22 46.83 79.31 47.32 79.39 42.52 79.48 36.07 79.56 32.84 79.65 35.3 79.74 41.61 79.82 47.05 79.91 47.55 79.99 42.75 80.08 36.29 80.17 33.07 80.25 35.52 80.34 41.84 80.42 47.28 80.51 47.77 80.6 42.97 80.68 36.51 80.77 33.29 80.85 35.75 80.94 42.06 81.03 47.5 81.11 47.99 81.2 43.19 81.28 36.73 81.37 33.51 81.46 35.96 81.54 42.28 81.63 47.72 81.72 48.21 81.8 43.41 81.89 36.95 81.97 33.72 82.06 36.18 82.15 42.49 82.23 47.93 82.32 48.42 82.4 43.62 82.49 37.16 82.58 33.93 82.66 36.39 82.75 42.7 82.83 48.13 82.92 48.62 83.01 43.82 83.09 37.36 83.18 34.13 83.26 36.59 83.35 42.9 83.44 48.33 83.52 48.82 83.61 44.02 83.69 37.56 83.78 34.33 83.87 36.78 83.95 43.09 84.04 48.53 84.13 49.02 84.21 44.21 84.3 37.75 84.38 34.52 84.47 36.97 84.56 43.28 84.64 48.71 84.73 49.2 84.81 44.39 84.9 37.93 84.99 34.7 85.07 37.15 85.16 43.46 85.24 48.89 85.33 49.38 85.42 44.57 85.5 38.11 85.59 34.87 85.67 37.32 85.76 43.63 85.85 49.06 85.93 49.55 86.02 44.74 86.1 38.27 86.19 35.04 86.28 37.49 86.36 43.79 86.45 49.22 86.54 49.71 86.62 44.9 86.71 38.43 86.79 35.2 86.88 37.65 86.97 43.95 87.05 49.38 87.14 49.86 87.22 45.05 87.31 38.59 87.4 35.35 87.48 37.8 87.57 44.1 87.65 49.53 87.74 50.01 87.83 45.2 87.91 38.74 88 35.5 88.08 37.94 88.17 44.25 88.26 49.67 88.34 50.16 88.43 45.34 88.51 38.88 88.6 35.64 88.69 38.09 88.77 44.39 88.86 49.81 88.94 50.3 89.03 45.48 89.12 39.02 89.2 35.78 89.29 38.22 89.38 44.52 89.46 49.95 89.81 50.43 89.89 45.62 89.98 39.15 90.06 35.91 90.15 38.36 90.24 44.66 90.32 50.08 90.41 50.57 90.49 45.75 90.58 39.28 90.67 36.05 90.75 38.49 90.84 44.79 90.92 50.22 91.01 50.7 91.1 45.89 91.18 39.42 91.27 36.18 91.35 38.62 91.44 44.93 91.53 50.35 91.61 50.83 91.7 46.02 91.79 39.55 91.87 36.32 91.96 38.76 92.04 45.06 92.13 50.49 92.22 50.97 92.3 46.16 92.39 39.69 92.47 36.45 92.56 38.9 92.65 45.2 92.73 50.63 92.82 51.11 92.9 46.3 92.99 39.83 93.08 36.6 93.16 39.04 93.25 45.35 93.33 50.77 93.42 51.26 93.51 46.45 93.59 39.98 93.68 36.75 93.76 39.19 93.85 45.5 93.94 50.93 94.02 51.41 94.11 46.6 94.19 40.14 94.28 36.9 94.37 39.35 94.45 45.66 94.54 51.09 94.63 51.57 94.71 46.76 94.8 40.3 94.88 37.07 94.97 39.52 95.06 45.82 95.14 51.26 95.23 51.74 95.31 46.94 95.4 40.48 95.49 37.25 95.57 39.7 95.66 46.01 95.74 51.44 95.83 51.93 95.92 47.12 96 40.66 96.09 37.44 96.17 39.89 96.26 46.2 96.35 51.63 96.43 52.13 96.52 47.32 96.6 40.87 96.69 37.64 96.78 40.09 96.86 46.41 96.95 51.84 97.04 52.34 97.12 47.54 97.21 41.08 97.29 37.86 97.38 40.31 97.47 46.63 97.55 52.07 97.64 52.56 97.72 47.76 97.81 41.31 97.9 38.09 97.98 40.55 98.15 46.87 98.24 52.31 98.33 52.81 98.41 48.01 98.5 41.56 98.58 38.34 98.67 40.8 98.76 47.12 98.84 52.57 98.93 53.07 99.01 48.27 99.1 41.82 99.19 38.61 99.27 41.07 99.36 47.39 99.45 52.84 99.53 53.34 99.62 48.55 99.7 42.11 99.79 38.89 99.88 41.36 99.96 47.68 100.05 53.13 100.13 53.64 100.22 48.85 100.31 42.41 100.39 39.19 100.48 41.66 100.56 47.99 100.65 53.44 100.74 53.95 100.82 49.16 100.91 42.72 100.99 39.51 101.08 41.99 101.17 48.32 101.25 53.77 101.34 54.28 101.42 49.5 101.51 43.06 101.6 39.85 101.68 42.33 101.77 48.66 101.85 54.12 101.94 54.63 102.03 49.85 102.11 43.41 102.2 40.21 102.29 42.69 102.37 49.02 102.46 54.48 102.54 55 102.63 50.22 102.72 43.79 102.8 40.58 102.89 43.06 102.97 49.4 103.06 54.86 103.15 55.38 103.23 50.6 103.32 44.17 103.4 40.97 103.49 43.45 103.58 49.79 103.66 55.26 103.75 55.78 103.83 51.01 103.92 44.58 104.01 41.38 104.09 43.86 104.18 50.2 104.26 55.67 104.35 56.19 104.44 51.42 104.52 45 104.61 41.8 104.7 44.29 104.78 50.63 104.87 56.1 104.95 56.62 105.04 51.85 105.13 45.43 105.21 42.23 105.3 44.72 105.38 51.07 105.47 56.54 105.56 57.06 105.64 52.29 105.73 45.87 105.81 42.68 105.9 45.17 105.99 51.51 106.07 56.99 106.16 57.51 106.24 52.75 106.33 46.33 106.42 43.14 106.5 45.63 106.59 51.97 106.67 57.45 106.76 57.98 106.85 53.21 106.93 46.79 107.02 43.6 107.1 46.09 107.19 52.44 107.28 57.92 107.36 58.45 107.45 53.68 107.54 47.26 107.62 44.07 107.71 46.57 107.79 52.92 107.88 58.39 107.97 58.92 108.05 54.16 108.14 47.74 108.22 44.55 108.31 47.05 108.4 53.4 108.48 58.87 108.57 59.4 108.65 54.64 108.74 48.22 108.83 45.03 108.91 47.53 109 53.88 109.08 59.36 109.17 59.89 109.26 55.12 109.34 48.71 109.43 45.52 109.51 48.01 109.6 54.36 109.69 59.84 109.77 60.37 109.86 55.61 109.95 49.19 110.03 46 110.12 48.5 110.2 54.85 110.29 60.33 110.38 60.86 110.46 56.09 110.55 49.67 110.63 46.49 110.72 48.98 110.81 55.33 110.89 60.81 110.98 61.34 111.06 56.57 111.15 50.16 111.24 46.97 111.32 49.46 111.41 55.81 111.49 61.29 111.58 61.82 111.67 57.05 111.75 50.63 111.84 47.44 111.92 49.94 112.01 56.28 112.1 61.76 112.18 62.29 112.27 57.52 112.36 51.1 112.44 47.91 112.53 50.4 112.61 56.75 112.7 62.23 112.79 62.75 112.87 57.99 112.96 51.57 113.04 48.37 113.13 50.86 113.22 57.21 113.3 62.68 113.39 63.21 113.47 58.44 113.56 52.02 113.65 48.83 113.73 51.32 113.82 57.66 113.9 63.13 113.99 63.66 114.08 58.89 114.16 52.47 114.25 49.27 114.33 51.76 114.42 58.1 114.51 63.57 114.59 64.1 114.68 59.33 114.76 52.9 114.85 49.7 114.94 52.19 115.02 58.53 115.11 64 115.2 64.52 115.28 59.75 115.37 53.32 115.45 50.13 115.54 52.61 115.63 58.95 115.71 64.42 115.8 64.94 115.88 60.16 115.97 53.74 116.06 50.54 116.14 53.02 116.23 59.36 116.31 64.82 116.4 65.34 116.49 60.57 116.57 54.13 116.66 50.93 116.74 53.41 116.83 59.75 116.92 65.21 117 65.73 117.09 60.95 117.17 54.52 117.26 51.32 117.35 53.8 117.43 60.13 117.52 65.6 117.61 66.11 117.69 61.33 117.78 54.9 117.86 51.69 117.95 54.17 118.04 60.5 118.12 65.96 118.21 66.48 118.29 61.7 118.38 55.26 118.47 52.05 118.55 54.53 118.64 60.86 118.72 66.32 118.81 66.83 118.9 62.05 118.98 55.61 119.07 52.4 119.15 54.88 119.24 61.21 119.33 66.67 119.41 67.18 119.5 62.39 119.58 55.95 119.67 52.74 119.76 55.22 119.84 61.55 119.93 67 120.01 67.51 120.1 62.72 120.19 56.28 120.27 53.07 120.36 55.55 120.45 61.87 120.53 67.33 120.62 67.83 120.7 63.05 120.79 56.61 120.88 53.39 120.96 55.86 121.05 62.19 121.13 67.64 121.22 68.15 121.31 63.36 121.39 56.92 121.48 53.71 121.56 56.18 121.65 62.5 121.74 67.95 121.82 68.46 121.91 63.67 121.99 57.23 122.08 54.01 122.17 56.48 122.25 62.81 122.34 68.26 122.42 68.76 122.51 63.97 122.6 57.53 122.68 54.32 122.77 56.78 122.86 63.11 122.94 68.56 123.03 69.06 123.11 64.27 123.2 57.83 123.29 54.61 123.37 57.08 123.46 63.4 123.54 68.85 123.63 69.36 123.72 64.57 123.8 58.12 123.89 54.91 123.97 57.38 124.06 63.7 124.15 69.15 124.23 69.65 124.32 64.86 124.4 58.42 124.49 55.2 124.58 57.67 124.66 64 124.75 69.45 124.83 69.95 124.92 65.16 125.01 58.72 125.09 55.5 125.18 57.97 125.27 64.29 125.35 69.74 125.44 70.25 125.52 65.46 125.61 59.01 125.7 55.8 125.78 58.27 125.87 64.59 125.95 70.04 126.04 70.55 126.13 65.76 126.21 59.32 126.3 56.1 126.38 58.57 126.47 64.9 126.56 70.35 126.64 70.85 126.73 66.07 126.81 59.62 126.9 56.41 126.99 58.88 127.07 65.21 127.16 70.66 127.24 71.17 127.33 66.38 127.42 59.94 127.5 56.73 127.59 59.2 127.67 65.53 127.76 70.98 127.85 71.49 127.93 66.7 128.02 60.26 128.11 57.05 128.19 59.52 128.28 65.85 128.36 71.31 128.45 71.82 128.54 67.03 128.62 60.59 128.71 57.38 128.79 59.86 128.88 66.19 128.97 71.64 129.05 72.16 129.14 67.37 129.22 60.94 129.31 57.73 129.4 60.2 129.48 66.54 129.57 71.99 129.65 72.51 129.74 67.73 129.83 61.29 129.91 58.08 130 60.56 130.08 66.89 130.17 72.35 130.26 72.87 130.34 68.09 130.43 61.65 130.52 58.45 130.6 60.93 130.69 67.26 130.77 72.73 130.86 73.24 130.95 68.47 131.03 62.03 131.12 58.83 131.2 61.31 131.29 67.65 131.38 73.11 131.46 73.63 131.55 68.85 131.63 62.42 131.72 59.22 131.81 61.71 131.89 68.04 131.98 73.51 132.06 74.03 132.15 69.26 132.24 62.83 132.32 59.63 132.41 62.11 132.49 68.45 132.58 73.92 132.67 74.44 132.75 69.67 132.84 63.24 132.92 60.05 133.01 62.53 133.1 68.88 133.18 74.35 133.27 74.87 133.36 70.1 133.44 63.67 133.53 60.48 133.61 62.97 133.7 69.31 133.79 74.78 133.87 75.31 133.96 70.54 134.04 64.12 134.13 60.92 134.22 63.41 134.3 69.76 134.39 75.23 134.47 75.76 134.56 70.99 134.65 64.57 134.73 61.38 134.82 63.87 134.9 70.22 134.99 75.69 135.08 76.22 135.16 71.45 135.25 65.03 135.33 61.84 135.42 64.33 135.51 70.68 135.59 76.16 135.68 76.69 135.77 71.93 135.85 65.51 135.94 62.32 136.02 64.81 136.11 71.16 136.2 76.64 136.28 77.17 136.37 72.41 136.45 65.99 136.54 62.8 136.63 65.3 136.71 71.65 136.8 77.13 136.88 77.66 136.97 72.9 137.06 66.48 137.14 63.29 137.23 65.79 137.31 72.14 137.4 77.62 137.49 78.15 137.57 73.39 137.66 66.97 137.74 63.79 137.83 66.29 137.92 72.64 138 78.12 138.09 78.65 138.18 73.89 138.26 67.48 138.35 64.29 138.43 66.79 138.52 73.14 138.61 78.62 138.69 79.15 138.78 74.39 138.86 67.98 138.95 64.79 139.04 67.29 139.12 73.64 139.21 79.12 139.29 79.66 139.38 74.9 139.47 68.48 139.55 65.3 139.64 67.79 139.72 74.15 139.81 79.63 139.9 80.16 139.98 75.4 140.07 68.98 140.15 65.8 140.24 68.3 140.33 74.65 140.41 80.13 140.5 80.66 140.58 75.9 140.67 69.49 140.76 66.3 140.84 68.8 140.93 75.15 141.02 80.63 141.1 81.16 141.19 76.4 141.27 69.98 141.36 66.79 141.45 69.29 141.53 75.64 141.62 81.12 141.7 81.65 141.79 76.89 141.88 70.47 141.96 67.28 142.05 69.78 142.13 76.13 142.22 81.61 142.31 82.14 142.39 77.37 142.48 70.95 142.56 67.76 142.65 70.26 142.74 76.61 142.82 82.08 142.91 82.61 142.99 77.85 143.08 71.43 143.17 68.24 143.25 70.73 143.34 77.08 143.43 82.55 143.51 83.08 143.6 78.31 143.68 71.89 143.77 68.7 143.86 71.19 143.94 77.53 144.03 83 144.11 83.53 144.2 78.76 144.29 72.34 144.37 69.14 144.46 71.63 144.54 77.98 144.63 83.45 144.72 83.97 144.8 79.2 144.89 72.78 144.97 69.58 145.06 72.07 145.15 78.41 145.23 83.88 145.32 84.4 145.4 79.62 145.49 73.2 145.58 70 145.66 72.48 145.75 78.82 145.83 84.29 145.92 84.81 146.01 80.03 146.09 73.6 146.18 70.4 146.27 72.88 146.35 79.22 146.44 84.69 146.52 85.2 146.61 80.43 146.7 73.99 146.78 70.79 146.87 73.27 146.95 79.6 147.04 85.07 147.13 85.58 147.21 80.8 147.3 74.37 147.38 71.16 147.47 73.64 147.56 79.97 147.64 85.43 147.73 85.94 147.81 81.16 147.9 74.72 147.99 71.51 148.07 73.99 148.16 80.32 148.24 85.78 148.33 86.29 148.42 81.5 148.5 75.06 148.59 71.85 148.68 74.32 148.76 80.65 148.85 86.1 148.93 86.61 149.02 81.82 149.11 75.38 149.19 72.17 149.28 74.64 149.36 80.96 149.45 86.42 149.54 86.92 149.62 82.13 149.71 75.69 149.79 72.47 149.88 74.94 149.97 81.26 150.05 86.71 150.14 87.21 150.22 82.42 150.31 75.97 150.4 72.76 150.48 75.22 150.57 81.54 150.65 86.99 150.74 87.49 150.83 82.69 150.91 76.24 151 73.03 151.08 75.49 151.17 81.81 151.26 87.25 151.34 87.75 151.43 82.95 151.52 76.5 151.6 73.28 151.69 75.74 151.77 82.06 151.86 87.5 151.95 87.99 152.03 83.2 152.12 76.74 152.2 73.52 152.29 75.98 152.38 82.29 152.46 87.73 152.55 88.23 152.63 83.43 152.72 76.97 152.81 73.75 152.89 76.2 152.98 82.51 153.06 87.95 153.15 88.45 153.24 83.64 153.32 77.19 153.41 73.96 153.49 76.42 153.58 82.73 153.67 88.16 153.75 88.65 153.84 83.85 153.93 77.39 154.01 74.16 154.1 76.62 154.18 82.93 154.27 88.36 154.36 88.85 154.44 84.05 154.53 77.59 154.61 74.36 154.7 76.81 154.79 83.12 154.87 88.56 154.96 89.04 155.04 84.24 155.13 77.78 155.22 74.55 155.3 77 155.39 83.31 155.47 88.74 155.56 89.23 155.65 84.42 155.73 77.96 155.82 74.73 155.9 77.18 155.99 83.49 156.08 88.92 156.16 89.41 156.25 84.6 156.34 78.14 156.42 74.91 156.51 77.36 156.59 83.67 156.68 89.1 156.77 89.58 156.85 84.78 156.94 78.32 157.02 75.08 157.11 77.53 157.2 83.84 157.28 89.27 157.37 89.76 157.45 84.95 157.54 78.49 157.63 75.26 157.71 77.71 157.8 84.01 157.88 89.45 157.97 89.93 158.06 85.13 158.14 78.66 158.23 75.43 158.31 77.88 158.4 84.19 158.49 89.62 158.57 90.11 158.66 85.3 158.74 78.84 158.83 75.61 158.92 78.06 159 84.37 159.09 89.8 159.18 90.29 159.26 85.48 159.35 79.02 159.43 75.79 159.52 78.24 159.61 84.55 159.69 89.98 159.78 90.47 159.86 85.66 159.95 79.2 160.04 75.97 160.12 78.42 160.21 84.73 160.29 90.17 160.38 90.65 160.47 85.85 160.55 79.39 160.64 76.16 160.72 78.61 160.81 84.92 160.9 90.36 160.98 90.85 161.07 86.04 161.15 79.58 161.24 76.35 161.33 78.81 161.41 85.12 161.5 90.56 161.59 91.05 161.67 86.24 161.76 79.79 161.84 76.56 161.93 79.01 162.02 85.32 162.1 90.76 162.19 91.25 162.27 86.45 162.36 79.99 162.45 76.77 162.53 79.22 162.62 85.54 162.7 90.97 162.79 91.47 162.88 86.67 162.96 80.21 163.05 76.98 163.13 79.44 163.31 85.76 163.39 91.2 163.48 91.69 163.56 86.89 163.65 80.44 163.74 77.21 163.82 79.67 163.91 85.98 164 91.42 164.08 91.92 164.17 87.12 164.25 80.67 164.34 77.45 164.43 79.9 164.51 86.22 164.6 91.66 164.68 92.16 164.77 87.36 164.86 80.91 164.94 77.69 165.03 80.15 165.11 86.46 165.2 91.91 165.29 92.41 165.37 87.61 165.46 81.16 165.54 77.94 165.63 80.4 165.72 86.72 165.8 92.16 165.89 92.66 165.97 87.86 166.06 81.41 166.15 78.19 166.23 80.66 166.32 86.98 166.4 92.42 166.49 92.92 166.58 88.13 166.66 81.68 166.75 78.46 166.84 80.92 166.92 87.24 167.01 92.69 167.09 93.19 167.18 88.39 167.27 81.94 167.35 78.72 167.44 81.19 167.52 87.51 167.61 92.96 167.7 93.46 167.78 88.66 167.87 82.22 167.95 79 168.04 81.46 168.13 87.78 168.21 93.23 168.3 93.73 168.38 88.94 168.47 82.49 168.56 79.27 168.64 81.74 168.73 88.06 168.81 93.5 168.9 94.01 168.99 89.21 169.07 82.77 169.16 79.55 169.25 82.01 169.33 88.33 169.42 93.78 169.5 94.28 169.59 89.49 169.68 83.04 169.76 79.82 169.85 82.29 169.93 88.61 170.02 94.06 170.11 94.56 170.19 89.76 170.28 83.32 170.36 80.1 170.45 82.56 170.54 88.88 170.62 94.33 170.71 94.83 170.79 90.04 170.88 83.59 170.97 80.37 171.05 82.83 171.14 89.15 171.22 94.6 171.31 95.1 171.4 90.3 171.48 83.85 171.57 80.63 171.65 83.1 171.74 89.42 171.83 94.86 171.91 95.36 172 90.56 172.09 84.11 172.17 80.89 172.26 83.35 172.34 89.67 172.43 95.12 172.52 95.61 172.6 90.82 172.69 84.36 172.77 81.14 172.86 83.6 172.95 89.92 173.03 95.36 173.12 95.86 173.2 91.06 173.29 84.61 173.38 81.38 173.46 83.84 173.55 90.16 173.63 95.6 173.72 96.09 173.81 91.29 173.89 84.84 173.98 81.61 174.06 84.07 174.15 90.38 174.24 95.82 174.32 96.31 174.41 91.51 174.5 85.05 174.58 81.82 174.67 84.28 174.75 90.59 174.84 96.03 174.93 96.52 175.01 91.71 175.1 85.25 175.18 82.02 175.27 84.47 175.36 90.78 175.44 96.22 175.53 96.71 175.61 91.9 175.7 85.44 175.79 82.21 175.87 84.65 175.96 90.96 176.04 96.39 176.13 96.88 176.22 92.07 176.3 85.6 176.39 82.37 176.47 84.82 176.56 91.12 176.65 96.55 176.73 97.03 176.82 92.22 176.91 85.75 176.99 82.52 177.08 84.96 177.16 91.26 177.25 96.69 177.34 97.17 177.42 92.35 177.51 85.88 177.59 82.64 177.68 85.08 177.77 91.38 177.85 96.8 177.94 97.28 178.02 92.46 178.11 85.99 178.2 82.75 178.28 85.19 178.37 91.48 178.45 96.9 178.54 97.38 178.63 92.56 178.71 86.08 178.8 82.83 178.88 85.27 178.97 91.56 179.06 96.98 179.14 97.45 179.23 92.63 179.31 86.15 179.4 82.9 179.49 85.33 179.57 91.62 179.66 97.03 179.75 97.5 179.83 92.67 179.92 86.19 180 82.94 180.09 85.37 180.18 91.65 180.26 97.07 180.35 97.53 180.43 92.7 180.52 86.22 180.61 82.96 180.69 85.39 180.78 91.67 180.86 97.08 180.95 97.54 181.04 92.71 181.12 86.22 181.21 82.96 181.29 85.38 181.38 91.66 181.47 97.07 181.55 97.53 181.64 92.69 181.72 86.2 181.81 82.94 181.9 85.36 181.98 91.64 182.07 97.04 182.16 97.5 182.24 92.66 182.33 86.16 182.41 82.9 182.5 85.32 182.59 91.59 182.67 96.99 182.76 97.44 182.84 92.6 182.93 86.11 183.02 82.84 183.1 85.25 183.19 91.53 183.27 96.92 183.36 97.37 183.45 92.53 183.53 86.03 183.62 82.76 183.7 85.17 183.79 91.44 183.88 96.84 183.96 97.29 184.05 92.44 184.13 85.94 184.22 82.67 184.31 85.08 184.39 91.34 184.48 96.74 184.56 97.18 184.65 92.33 184.74 85.83 184.82 82.56 184.91 84.96 185 91.23 185.08 96.62 185.17 97.06 185.25 92.21 185.34 85.71 185.43 82.43 185.51 84.84 185.6 91.1 185.68 96.49 185.77 96.93 185.86 92.08 185.94 85.57 186.03 82.29 186.11 84.7 186.2 90.96 186.29 96.35 186.37 96.79 186.46 91.93 186.54 85.42 186.63 82.15 186.72 84.55 186.8 90.81 186.89 96.19 186.97 96.63 187.06 91.78 187.15 85.27 187.23 81.99 187.32 84.39 187.41 90.65 187.49 96.03 187.58 96.47 187.66 91.61 187.75 85.1 187.84 81.82 187.92 84.22 188.01 90.48 188.09 95.86 188.18 96.3 188.27 91.44 188.35 84.93 188.44 81.65 188.52 84.05 188.61 90.3 188.7 95.69 188.78 96.12 188.87 91.27 188.95 84.75 189.04 81.47 189.13 83.87 189.21 90.12 189.3 95.51 189.38 95.94 189.47 91.08 189.56 84.57 189.64 81.29 189.73 83.69 189.82 89.94 189.9 95.32 189.99 95.76 190.07 90.9 190.16 84.39 190.25 81.11 190.33 83.5 190.42 89.76 190.5 95.14 190.59 95.58 190.68 90.72 190.76 84.21 190.85 80.92 190.93 83.32 191.02 89.58 191.11 94.96 191.19 95.39 191.28 90.54 191.36 84.02 191.45 80.74 191.54 83.14 191.62 89.4 191.71 94.78 191.79 95.21 191.88 90.36 191.97 83.84 192.05 80.56 192.14 82.96 192.22 89.22 192.31 94.6 192.4 95.03 192.48 90.18 192.57 83.67 192.66 80.38 192.74 82.78 192.83 89.04 192.91 94.42 193 94.86 193.09 90 193.17 83.49 193.26 80.21 193.34 82.61 193.43 88.87 193.52 94.25 193.6 94.69 193.69 89.83 193.77 83.32 193.86 80.04 193.95 82.44 194.03 88.7 194.12 94.08 194.2 94.52 194.29 89.67 194.38 83.16 194.46 79.88 194.55 82.28 194.63 88.54 194.72 93.92 194.81 94.36 194.89 89.51 194.98 83 195.07 79.72 195.15 82.12 195.24 88.38 195.32 93.77 195.41 94.21 195.5 89.35 195.58 82.84 195.67 79.57 195.75 81.97 195.84 88.23 195.93 93.62 196.01 94.06 196.1 89.2 196.18 82.7 196.27 79.42 196.36 81.82 196.44 88.08 196.53 93.47 196.61 93.91 196.7 89.06 196.79 82.55 196.87 79.27 196.96 81.68 197.04 87.94 197.13 93.33 197.22 93.77 197.3 88.92 197.39 82.41 197.47 79.14 197.56 81.54 197.65 87.8 197.73 93.19 197.82 93.63 197.91 88.78 197.99 82.28 198.08 79 198.16 81.41 198.25 87.67 198.34 93.06 198.42 93.5 198.51 88.65 198.59 82.14 198.68 78.87 198.77 81.27 198.85 87.54 198.94 92.93 199.02 93.37 199.11 88.52 199.2 82.01 199.28 78.74 199.37 81.14 199.45 87.41 199.54 92.8 199.63 93.24 199.71 88.39 199.8 81.88 199.88 78.61 199.97 81.01 200.06 87.28 200.14 92.66 200.23 93.11 200.32 88.26 200.4 81.75 200.49 78.48 200.57 80.88 200.66 87.14 200.75 92.53 200.83 92.98 200.92 88.12 201 81.62 201.09 78.34 201.18 80.75 201.26 87.01 201.35 92.4 201.43 92.84 201.52 87.99 201.61 81.48 201.69 78.2 201.78 80.61 201.86 86.87 201.95 92.26 202.04 92.7 202.12 87.85 202.12 81.34 202.21 78.06 202.29 80.47 202.38 86.73 202.47 92.11 202.55 92.55 202.64 87.7 202.73 81.19 202.81 77.91 202.9 80.31 202.98 86.57 203.07 91.96 203.16 92.4 203.24 87.54 203.33 81.03 203.41 77.75 203.5 80.15 203.59 86.41 203.67 91.8 203.76 92.23 203.84 87.38 203.93 80.87 204.02 77.58 204.1 79.98 204.19 86.24 204.27 91.62 204.36 92.06 204.45 87.2 204.53 80.69 204.62 77.4 204.7 79.8 204.79 86.05 204.88 91.44 204.96 91.87 205.05 87.01 205.13 80.49 205.22 77.21 205.31 79.6 205.39 85.86 205.48 91.23 205.57 91.67 205.65 86.8 205.74 80.29 205.82 77 205.91 79.39 206 85.64 206.08 91.02 206.17 91.45 206.25 86.58 206.34 80.06 206.43 76.77 206.51 79.16 206.6 85.41 206.68 90.78 206.77 91.21 206.86 86.34 206.94 79.82 207.03 76.52 207.11 78.91 207.2 85.16 207.29 90.53 207.37 90.95 207.46 86.08 207.54 79.56 207.63 76.26 207.72 78.65 207.8 84.89 207.89 90.25 207.98 90.68 208.06 85.8 208.15 79.27 208.23 75.98 208.32 78.36 208.41 84.6 208.49 89.96 208.58 90.38 208.66 85.5 208.75 78.97 208.84 75.67 208.92 78.05 209.01 84.28 209.09 89.65 209.18 90.06 209.27 85.18 209.35 78.65 209.44 75.34 209.52 77.72 209.61 83.95 209.7 89.31 209.78 89.72 209.87 84.84 209.95 78.3 210.04 74.99 210.13 77.36 210.21 83.59 210.3 88.95 210.38 89.36 210.47 84.47 210.56 77.93 210.64 74.62 210.73 76.99 210.82 83.21 210.9 88.56 210.99 88.97 211.07 84.08 211.16 77.54 211.25 74.22 211.33 76.59 211.42 82.81 211.5 88.16 211.59 88.56 211.68 83.67 211.76 77.12 211.85 73.8 211.93 76.17 212.02 82.39 212.11 87.73 212.19 88.13 212.28 83.23 212.36 76.68 212.45 73.36 212.54 75.72 212.62 81.94 212.71 87.28 212.79 87.68 212.88 82.78 212.97 76.22 213.05 72.9 213.14 75.25 213.23 81.47 213.31 86.81 213.4 87.2 213.48 82.3 213.57 75.74 213.66 72.41 213.74 74.77 213.83 80.98 213.91 86.31 214 86.7 214.09 81.8 214.17 75.24 214.26 71.91 214.34 74.26 214.43 80.47 214.52 85.8 214.6 86.19 214.69 81.28 214.77 74.72 214.86 71.38 214.95 73.73 215.03 79.94 215.12 85.27 215.2 85.65 215.29 80.74 215.38 74.18 215.46 70.84 215.55 73.19 215.64 79.39 215.72 84.72 215.81 85.1 215.89 80.19 215.98 73.62 216.07 70.28 216.15 72.62 216.24 78.82 216.32 84.15 216.41 84.53 216.5 79.62 216.58 73.05 216.67 69.71 216.75 72.05 216.84 78.24 216.93 83.57 217.01 83.95 217.1 79.03 217.18 72.46 217.27 69.12 217.36 71.46 217.44 77.65 217.53 82.97 217.61 83.35 217.7 78.43 217.79 71.86 217.87 68.51 217.96 70.85 218.04 77.05 218.13 82.37 218.22 82.74 218.3 77.82 218.39 71.25 218.48 67.9 218.56 70.24 218.65 76.43 218.73 81.75 218.82 82.12 218.91 77.2 218.99 70.63 219.08 67.28 219.16 69.62 219.25 75.81 219.34 81.13 219.42 81.5 219.51 76.58 219.59 70 219.68 66.65 219.77 68.99 219.85 75.18 219.94 80.49 220.02 80.86 220.11 75.94 220.2 69.36 220.28 66.02 220.37 68.35 220.45 74.54 220.54 79.86 220.63 80.23 220.71 75.3 220.8 68.73 220.89 65.38 220.97 67.71 221.06 73.9 221.14 79.22 221.23 79.59 221.32 74.66 221.4 68.08 221.49 64.74 221.57 67.07 221.66 73.26 221.75 78.57 221.83 78.94 221.92 74.02 222 67.44 222.09 64.09 222.18 66.43 222.26 72.62 222.35 77.93 222.43 78.3 222.52 73.38 222.61 66.8 222.69 63.45 222.78 65.78 222.86 71.97 222.95 77.29 223.04 77.66 223.12 72.74 223.21 66.16 223.29 62.81 223.38 65.14 223.47 71.33 223.55 76.65 223.64 77.02 223.73 72.1 223.81 65.52 223.9 62.17 223.98 64.51 224.07 70.7 224.16 76.01 224.24 76.39 224.33 71.46 224.41 64.89 224.5 61.54 224.59 63.87 224.67 70.06 224.76 75.38 224.84 75.75 224.93 70.83 225.02 64.26 225.1 60.91 225.19 63.24 225.27 69.44 225.36 74.75 225.45 75.13 225.53 70.21 225.62 63.63 225.7 60.28 225.79 62.62 225.88 68.81 225.96 74.13 226.05 74.5 226.14 69.58 226.22 63.01 226.31 59.66 226.39 62 226.48 68.19 226.57 73.51 226.65 73.89 226.74 68.97 226.82 62.39 226.91 59.05 227 61.39 227.08 67.58 227.17 72.9 227.25 73.27 227.34 68.36 227.43 61.78 227.51 58.44 227.6 60.78 227.68 66.97 227.77 72.29 227.86 72.67 227.94 67.75 228.03 61.18 228.11 57.83 228.2 60.17 228.29 66.37 228.37 71.69 228.46 72.07 228.55 67.15 228.63 60.58 228.72 57.23 228.8 59.57 228.89 65.77 228.98 71.09 229.06 71.47 229.15 66.55 229.23 59.98 229.32 56.64 229.41 58.98 229.49 65.18 229.58 70.5 229.66 70.88 229.75 65.96 229.84 59.39 229.92 56.05 230.01 58.39 230.09 64.58 230.18 69.91 230.27 70.28 230.35 65.37 230.44 58.8 230.52 55.46 230.61 57.8 230.7 63.99 230.78 69.32 230.87 69.69 230.95 64.78 231.04 58.21 231.13 54.87 231.21 57.21 231.3 63.4 231.39 68.73 231.47 69.11 231.56 64.19 231.64 57.62 231.73 54.28 231.82 56.62 231.9 62.82 231.99 68.14 232.07 68.52 232.16 63.6 232.25 57.03 232.33 53.69 232.42 56.03 232.5 62.22 232.59 67.55 232.68 67.92 232.76 63.01 232.85 56.43 232.93 53.09 233.02 55.43"/>
      </g>
    </g>
  </g>
  <g class="guide ylabels" font-size="2.82" font-family="'PT Sans Caption','Helvetica Neue','Helvetica',sans-serif" fill="#6C606B" id="fig-5f341cca0e9a44b6a908ae7af94ea170-element-12">
    <text x="24.86" y="98.96" text-anchor="end" dy="0.35em">5.95</text>
    <text x="24.86" y="71.39" text-anchor="end" dy="0.35em">6.00</text>
    <text x="24.86" y="43.83" text-anchor="end" dy="0.35em">6.05</text>
    <text x="24.86" y="16.26" text-anchor="end" dy="0.35em">6.10</text>
  </g>
  <g font-size="3.88" font-family="'PT Sans','Helvetica Neue','Helvetica',sans-serif" fill="#564A55" stroke="none" id="fig-5f341cca0e9a44b6a908ae7af94ea170-element-13">
    <text x="130.43" y="12.26" text-anchor="middle">Expected Happiness on Twitter</text>
  </g>
</g>
<defs>
<clipPath id="fig-5f341cca0e9a44b6a908ae7af94ea170-element-6">
  <path d="M25.86,14.26 L 235 14.26 235 100.96 25.86 100.96" />
</clipPath
></defs>
</svg>
